b4074094cb8c5152361a9fab71dca9e9 *tests/data/fate/enhanced-flv-vvc.flv
90620 tests/data/fate/enhanced-flv-vvc.flv
#extradata 0:      161, 0x98c53408
#tb 0: 1/1000
#media_type 0: video
#codec_id 0: vvc
#dimensions 0: 1920x1080
#sar 0: 0/1
0,          0,          0,       40,    66674, 0x2355e48b
0,         40,         40,       40,     4032, 0xcf27cb12, F=0x0
0,         80,         80,       40,     1704, 0x76e74113, F=0x0
0,        120,        120,       40,     1793, 0xca098d19, F=0x0
0,        160,        160,       40,     1181, 0x0bd63dc5, F=0x0
0,        200,        200,       40,      943, 0xae1ec812, F=0x0
0,        240,        240,       40,      879, 0x2f34a4f5, F=0x0
0,        280,        280,       40,     1282, 0x99727f95, F=0x0
0,        320,        320,       40,      834, 0x57f09b37, F=0x0
0,        360,        360,       40,      879, 0x9df3b028, F=0x0
0,        400,        400,       40,     1238, 0x261764ae, F=0x0
0,        440,        440,       40,     1236, 0x02075ca9, F=0x0
0,        480,        480,       40,      904, 0x22b3a9d4, F=0x0
0,        520,        520,       40,     2584, 0xd35bfe72, F=0x0
0,        560,        560,       40,     1380, 0x6721af09, F=0x0
0,        600,        600,       40,      950, 0x78f2c394, F=0x0
0,        640,        640,       40,     1366, 0xd52c996a, F=0x0
